<svg id="SvgjsSvg1000" xmlns="http://www.w3.org/2000/svg" version="1.1" xmlns:xlink="http://www.w3.org/1999/xlink" xmlns:svgjs="http://svgjs.com/svgjs" width="613" height="613"><defs id="SvgjsDefs1001"></defs><path id="SvgjsPath1007" d="M449.945 612.5C454.953 612.5 459.929 610.438 463.469 606.898C467.01 603.357 469.07099999999997 598.381 469.07099999999997 593.374L469.07099999999997 325.608L593.391 325.608C600.8919999999999 325.594 608.158 320.727 611.0269999999999 313.797C613.896 306.865 612.194 298.28700000000003 606.8979999999999 292.976L320.0069999999999 6.084979999999973C316.4659999999999 2.554189999999973 311.4979999999999 0.4999699999999736 306.4999999999999 0.4999699999999736C301.4999999999999 0.4999699999999736 296.5309999999999 2.5541899999999735 292.9929999999999 6.084979999999973L6.101759999999899 292.976C0.8058699999998993 298.287 -0.8962700000001007 306.867 1.9723699999998994 313.797C4.841509999999899 320.72700000000003 12.1070999999999 325.59400000000005 19.6085999999999 325.608L143.9279999999999 325.608L143.9279999999999 593.374C143.9279999999999 598.381 145.98999999999992 603.357 149.52999999999992 606.898C153.0709999999999 610.438 158.0469999999999 612.5 163.05399999999992 612.5Z " fill="#fcd793" transform="matrix(1,0,0,1,0,0)"></path></svg>