<svg id="SvgjsSvg1026" xmlns="http://www.w3.org/2000/svg" version="1.1" xmlns:xlink="http://www.w3.org/1999/xlink" xmlns:svgjs="http://svgjs.com/svgjs" width="66" height="90" preserveAspectRatio="xMidYMid meet"><defs id="SvgjsDefs1027"></defs><path id="SvgjsPath1028" d="M400.954 70.0001C400.547 70.0001 399.514 70.1401 398.452 70.4702C398.181 66.857 395.153 64 391.472 64C389.792 64 388.24899999999997 64.5942 387.042 65.584C386.056 62.911100000000005 383.48199999999997 61 380.472 61C378.721 61 376.91999999999996 61.5357 375.472 62.5719L375.472 55.3043C379.62 52.998 382.43699999999995 48.573699999999995 382.43699999999995 43.500099999999996C382.43699999999995 36.0562 376.381 30.000099999999996 368.93699999999995 30.000099999999996C361.49199999999996 30.000099999999996 355.43699999999995 36.0562 355.43699999999995 43.500099999999996C355.43699999999995 48.494099999999996 358.169 52.8536 362.21199999999993 55.1885L362.28299999999996 86.7427L356.52399999999994 80.6978C354.97399999999993 79.1471 352.9239999999999 78.2925 350.7509999999999 78.2925C348.5779999999999 78.2925 346.5279999999999 79.1465 344.9789999999999 80.6974C341.77399999999994 83.9014 341.7679999999999 89.1074 344.90599999999995 92.2428C344.95799999999997 92.30080000000001 350.17499999999995 98.1177 357.61799999999994 105.56L358.82899999999995 106.776C365.88699999999994 113.872 371.98199999999997 120 384.179 120C396.808 120 401.03299999999996 113.662 404.27799999999996 107.17099999999999C407.4 100.92599999999999 407.43699999999995 77.01459999999999 407.43699999999995 76.00009999999999C407.43699999999995 72.80369999999999 404.407 70.00009999999999 400.95399999999995 70.00009999999999ZM365.187 44.5312C365.187 42.4556 366.173 40.015699999999995 368.95 40.015699999999995C372.21799999999996 40.015699999999995 372.472 43.4443 372.472 44.49999999999999L372.472 72.5C372.472 73.3286 373.144 74 373.972 74C374.79999999999995 74 375.472 73.3286 375.472 72.5L375.472 68.5001C375.472 65.1983 378.462 64 380.472 64C382.678 64 384.472 65.7945 384.472 68L384.472 73.5C384.472 74.3286 385.144 75 385.972 75C386.79999999999995 75 387.472 74.3286 387.472 73.5L387.472 71C387.472 68.7945 389.26599999999996 67.0001 391.472 67.0001C393.678 67.0001 395.472 68.7945 395.472 71L395.472 77.5001C395.472 78.3287 396.144 79.0001 396.972 79.0001C397.79999999999995 79.0001 398.472 78.3287 398.472 77.5001L398.472 73.6807C399.07099999999997 73.3882 400.248 73.0001 400.954 73.0001C402.744 73.0001 404.437 74.458 404.437 76.0001C404.437 82.7163 403.925 101.16900000000001 401.595 105.82900000000001C398.53900000000004 111.941 395.12 117 384.17900000000003 117C373.22900000000004 117 367.81300000000005 111.555 360.956 104.661L359.73900000000003 103.43900000000001C352.35800000000006 96.05860000000001 347.192 90.2988 347.08400000000006 90.1817C346.10300000000007 89.20020000000001 345.5640000000001 87.8936 345.5660000000001 86.5034C345.5700000000001 85.1123 346.1140000000001 83.80369999999999 347.1000000000001 82.8185C348.0830000000001 81.8345 349.38000000000005 81.2925 350.7510000000001 81.2925C352.12200000000007 81.2925 353.41800000000006 81.8345 354.3760000000001 82.7925L362.7060000000001 91.5347C363.13200000000006 91.9806 363.7850000000001 92.12010000000001 364.35100000000006 91.8922C364.92100000000005 91.6631 365.29300000000006 91.1105 365.29200000000003 90.4967Z " fill="#ffffff" transform="matrix(1,0,0,1,-342,-30)"></path></svg>