<svg id="SvgjsSvg1023" xmlns="http://www.w3.org/2000/svg" version="1.1" xmlns:xlink="http://www.w3.org/1999/xlink" xmlns:svgjs="http://svgjs.com/svgjs" width="66" height="84" preserveAspectRatio="xMidYMid meet"><defs id="SvgjsDefs1024"></defs><path id="SvgjsPath1025" d="M1134.16 1616.5C1121.97 1616.5 1115.89 1610.38 1108.8400000000001 1603.29L1107.6100000000001 1602.06C1100.17 1594.62 1094.96 1588.8 1094.91 1588.74C1093.42 1587.25 1092.5700000000002 1585.19 1092.5800000000002 1582.99C1092.5900000000001 1580.81 1093.45 1578.75 1095.0000000000002 1577.2C1096.5500000000002 1575.65 1098.6100000000001 1574.79 1100.7900000000002 1574.79C1102.9700000000003 1574.79 1105.0300000000002 1575.6499999999999 1106.5800000000002 1577.2L1112.43 1583.28L1112.47 1541C1112.47 1536.72 1115.5 1533.5 1119.52 1533.5C1123.58 1533.5 1126.6299999999999 1536.72 1126.6299999999999 1541L1126.6299999999999 1559.07C1128.08 1558.04 1129.8799999999999 1557.5 1131.6299999999999 1557.5C1134.6399999999999 1557.5 1137.2199999999998 1559.41 1138.1999999999998 1562.08C1139.4099999999999 1561.09 1140.9499999999998 1560.5 1142.6299999999999 1560.5C1146.27 1560.5 1149.27 1563.29 1149.6 1566.84C1150.33 1566.62 1151.04 1566.5 1151.53 1566.5C1154.83 1566.5 1157.42 1569.14 1157.42 1572.5C1157.42 1573.51 1157.38 1597.43 1154.26 1603.67C1151.02 1610.16 1146.79 1616.5 1134.16 1616.5ZM1100.79 1577.79C1099.4099999999999 1577.79 1098.1 1578.34 1097.12 1579.32C1096.1299999999999 1580.31 1095.59 1581.62 1095.58 1583.01C1095.57 1584.4 1096.11 1585.7 1097.09 1586.68C1097.1999999999998 1586.8 1102.35 1592.5600000000002 1109.73 1599.94L1110.96 1601.17C1117.81 1608.0600000000002 1123.22 1613.5 1134.16 1613.5C1145.1000000000001 1613.5 1148.52 1608.44 1151.5800000000002 1602.33C1153.91 1597.6699999999998 1154.42 1579.22 1154.42 1572.5C1154.42 1570.82 1153.15 1569.5 1151.53 1569.5C1150.92 1569.5 1150.07 1569.82 1149.6299999999999 1570.08L1149.6299999999999 1574C1149.6299999999999 1574.83 1148.9599999999998 1575.5 1148.1299999999999 1575.5C1147.3 1575.5 1146.6299999999999 1574.83 1146.6299999999999 1574L1146.6299999999999 1567.5C1146.6299999999999 1565.29 1144.84 1563.5 1142.6299999999999 1563.5C1140.4299999999998 1563.5 1138.6299999999999 1565.29 1138.6299999999999 1567.5L1138.6299999999999 1570C1138.6299999999999 1570.83 1137.9599999999998 1571.5 1137.1299999999999 1571.5C1136.3 1571.5 1135.6299999999999 1570.83 1135.6299999999999 1570L1135.6299999999999 1564.5C1135.6299999999999 1562.29 1133.84 1560.5 1131.6299999999999 1560.5C1129.62 1560.5 1126.6299999999999 1561.7 1126.6299999999999 1565L1126.6299999999999 1569C1126.6299999999999 1569.83 1125.9599999999998 1570.5 1125.1299999999999 1570.5C1124.3 1570.5 1123.6299999999999 1569.83 1123.6299999999999 1569L1123.6299999999999 1541C1123.6299999999999 1538.39 1121.8999999999999 1536.5 1119.52 1536.5C1117.17 1536.5 1115.47 1538.39 1115.47 1541L1115.42 1587C1115.42 1587.61 1115.0500000000002 1588.16 1114.48 1588.39C1113.92 1588.6200000000001 1113.27 1588.48 1112.84 1588.0400000000002L1104.4399999999998 1579.3000000000002C1103.4799999999998 1578.3400000000001 1102.1699999999998 1577.7900000000002 1100.7899999999997 1577.7900000000002Z " fill="#000000" transform="matrix(1,0,0,1,-1092,-1533)"></path></svg>