<svg id="SvgjsSvg1020" xmlns="http://www.w3.org/2000/svg" version="1.1" xmlns:xlink="http://www.w3.org/1999/xlink" xmlns:svgjs="http://svgjs.com/svgjs" width="66" height="90" preserveAspectRatio="xMidYMid meet"><defs id="SvgjsDefs1021"></defs><path id="SvgjsPath1022" d="M100.954 70.0001C100.547 70.0001 99.5137 70.1401 98.45219999999999 70.4702C98.18079999999999 66.857 95.15329999999999 64 91.47169999999998 64C89.79199999999999 64 88.24909999999998 64.5942 87.04199999999999 65.584C86.05579999999999 62.911100000000005 83.48249999999999 61 80.47169999999998 61C78.72069999999998 61 76.91999999999999 61.5357 75.47169999999998 62.5719L75.47169999999998 55.3043C79.62009999999998 52.998 82.43649999999998 48.573699999999995 82.43649999999998 43.500099999999996C82.43649999999998 36.0562 76.38089999999998 30.000099999999996 68.93649999999998 30.000099999999996C61.49219999999998 30.000099999999996 55.43649999999998 36.0562 55.43649999999998 43.500099999999996C55.43649999999998 48.494099999999996 58.16909999999998 52.8536 62.21189999999998 55.1885L62.283299999999976 86.7427L56.52349999999998 80.6978C54.97369999999998 79.1471 52.92379999999998 78.2925 50.750999999999976 78.2925C48.57809999999998 78.2925 46.52829999999997 79.1465 44.978499999999976 80.6974C41.77439999999998 83.9014 41.76759999999997 89.1074 44.90629999999997 92.2428C44.95799999999997 92.30080000000001 50.174799999999976 98.1177 57.61819999999997 105.56L58.829099999999976 106.776C65.88669999999998 113.872 71.98149999999998 120 84.17879999999997 120C96.80759999999997 120 101.03299999999996 113.662 104.27799999999996 107.17099999999999C107.39999999999996 100.92599999999999 107.43699999999997 77.01459999999999 107.43699999999997 76.00009999999999C107.43699999999997 72.80369999999999 104.40699999999997 70.00009999999999 100.95399999999997 70.00009999999999ZM58.4365 43.5001C58.4365 37.7105 63.1465 33.0001 68.9365 33.0001C74.7267 33.0001 79.4365 37.7105 79.4365 43.5001C79.4365 46.8194 77.8838 49.778400000000005 75.4717 51.704100000000004L75.4717 44.5C75.4717 40.0143 72.8506 37 68.9503 37C65.0313 37 62.187599999999996 40.1543 62.187599999999996 44.5034L62.2031 51.5469C59.9033 49.6192 58.4365 46.728500000000004 58.4365 43.5001ZM65.1875 44.5312C65.1875 42.4556 66.1729 40.015699999999995 68.9503 40.015699999999995C72.2178 40.015699999999995 72.4717 43.4443 72.4717 44.49999999999999L72.4717 72.5C72.4717 73.3286 73.14359999999999 74 73.9717 74C74.7998 74 75.4717 73.3286 75.4717 72.5L75.4717 68.5001C75.4717 65.1983 78.4619 64 80.4717 64C82.6778 64 84.4718 65.7945 84.4718 68L84.4718 73.5C84.4718 74.3286 85.1436 75 85.9718 75C86.7998 75 87.4718 74.3286 87.4718 73.5L87.4718 71C87.4718 68.7945 89.2656 67.0001 91.4717 67.0001C93.6779 67.0001 95.4717 68.7945 95.4717 71L95.4717 77.5001C95.4717 78.3287 96.1437 79.0001 96.9717 79.0001C97.7998 79.0001 98.4717 78.3287 98.4717 77.5001L98.4717 73.6807C99.0714 73.3882 100.248 73.0001 100.954 73.0001C102.744 73.0001 104.437 74.458 104.437 76.0001C104.437 82.7163 103.925 101.16900000000001 101.595 105.82900000000001C98.5391 111.941 95.1201 117 84.1788 117C73.2285 117 67.8126 111.555 60.95609999999999 104.661L59.73929999999999 103.43900000000001C52.358399999999996 96.05860000000001 47.19239999999999 90.2988 47.08399999999999 90.1817C46.10269999999999 89.20020000000001 45.56349999999999 87.8936 45.56639999999999 86.5034C45.57029999999999 85.1123 46.11439999999999 83.80369999999999 47.09959999999999 82.8185C48.08299999999999 81.8345 49.379899999999985 81.2925 50.75099999999999 81.2925C52.12209999999999 81.2925 53.41799999999999 81.8345 54.37599999999999 82.7925L62.70609999999999 91.5347C63.13089999999999 91.9806 63.78519999999999 92.12010000000001 64.35059999999999 91.8922C64.92089999999999 91.6631 65.29299999999999 91.1105 65.29199999999999 90.4967Z " fill="#ffffff" transform="matrix(1,0,0,1,-42,-30)"></path></svg>